<svg version="1.1" id="Layer_1" xmlns="http://www.w3.org/2000/svg" xmlns:xlink="http://www.w3.org/1999/xlink" x="0px" y="0px"
	 width="100%" viewBox="0 0 452 452" enable-background="new 0 0 452 452" xml:space="preserve">
<path fill="#000000" opacity="1.000000" stroke="none" 
	d="
M254.000000,453.000000 
	C170.689560,453.000000 87.879082,452.976959 5.068779,453.085388 
	C1.796480,453.089661 0.894077,452.636047 0.896975,449.070801 
	C1.017243,301.111786 1.019096,153.152664 0.891561,5.193661 
	C0.888322,1.436092 1.849027,0.913025 5.304140,0.915326 
	C153.096542,1.013755 300.889038,1.013073 448.681458,0.918626 
	C452.097717,0.916443 453.114685,1.381926 453.111328,5.179283 
	C452.980194,153.138275 452.983185,301.097382 453.101410,449.056396 
	C453.104248,452.592224 452.249023,453.094238 448.945557,453.088196 
	C384.130524,452.969574 319.315247,453.000000 254.000000,453.000000 
z"/>
<path fill="#B71C1C" opacity="1.000000" stroke="none" 
	d="
M77.915359,291.958191 
	C80.135742,286.758545 85.177559,284.788177 88.809608,281.312256 
	C102.916267,267.812042 117.304924,254.550644 130.319565,239.997391 
	C143.460556,225.302902 155.258942,209.420090 159.104507,189.496292 
	C164.239746,162.890747 159.560593,138.032700 143.348221,115.901031 
	C137.668304,108.147316 130.886871,101.306557 124.077377,94.515778 
	C119.362564,89.813934 115.771484,84.327972 113.964287,77.431076 
	C113.159691,75.653465 113.610321,74.139107 113.752762,72.274612 
	C113.982803,71.153053 114.007370,70.429176 114.096603,69.348907 
	C118.849556,67.607315 120.051430,72.212990 123.129623,74.250595 
	C123.594360,74.545692 123.790787,74.645767 124.265137,74.921585 
	C124.718491,75.226372 124.893921,75.355431 125.583221,75.879654 
	C126.273811,76.400169 126.450523,76.525528 127.193558,76.993591 
	C127.962265,77.442673 128.164658,77.549057 128.679306,77.812897 
	C136.531708,81.722389 144.662155,83.632484 153.161041,85.647995 
	C164.301819,88.837349 175.269653,90.820496 186.841370,91.801178 
	C195.288895,92.778336 203.351501,93.537193 211.659454,95.470200 
	C216.185532,96.399773 220.505890,96.465340 224.699310,98.731140 
	C247.338821,102.814056 269.709229,106.008904 291.657593,111.706505 
	C318.043854,118.556137 342.273438,129.818512 364.659119,145.185089 
	C379.485687,155.362732 392.882446,167.073761 402.855499,182.292557 
	C403.952240,183.966156 404.997467,185.596375 405.446716,187.912933 
	C384.036407,190.359589 362.752625,193.276230 341.647247,197.164490 
	C324.084412,200.400116 306.539185,203.876541 289.224976,208.365677 
	C282.727356,210.050339 276.166809,211.492386 269.218719,213.112656 
	C266.161316,216.359039 261.867645,215.990158 258.295624,218.089752 
	C249.638535,220.443100 241.496384,223.226578 232.756409,225.304871 
	C224.742325,227.287552 217.278122,229.696930 209.710754,233.004608 
	C200.669113,235.979721 192.259308,239.586838 183.195648,242.433975 
	C179.405182,243.493027 176.150635,244.916748 172.683914,246.755814 
	C171.942947,247.148361 171.492905,247.308685 170.674377,247.463593 
	C166.370224,248.928177 162.691879,250.932526 158.659485,253.020004 
	C149.435028,257.333801 140.969696,262.336426 131.881439,266.911011 
	C126.472466,268.750122 122.189468,272.011169 117.123581,274.514832 
	C116.631874,274.861206 116.421181,274.982605 115.865768,275.229736 
	C104.746857,279.332489 95.636932,286.568817 85.051933,290.913513 
	C82.819244,291.829987 80.742760,293.618866 77.915359,291.958191 
z"/>
<path fill="#CFD8DC" opacity="1.000000" stroke="none" 
	d="
M116.105171,274.350220 
	C119.904961,269.858521 125.456802,268.428680 130.552689,265.563965 
	C132.768677,267.994049 131.132492,270.322449 130.518326,272.600006 
	C128.170120,281.308136 127.971313,289.869659 131.414810,298.288818 
	C133.456512,298.418854 133.819687,296.909546 134.477386,295.883881 
	C142.013748,284.131226 148.777954,271.977081 153.561493,258.804962 
	C154.411743,256.463684 155.250549,254.106995 157.556671,252.227417 
	C161.047363,248.857712 165.422989,247.951370 169.647675,246.099854 
	C172.052032,248.470276 170.764542,250.926895 170.134888,253.248245 
	C165.821915,269.148834 158.429108,283.681641 150.166565,297.820740 
	C149.673080,298.665161 148.868561,299.351776 148.745667,300.773712 
	C162.887726,295.430176 176.890656,290.221222 190.278534,283.476715 
	C193.534286,281.836548 193.509125,280.288055 191.035690,277.963379 
	C183.393631,270.780975 177.837845,262.122253 173.463043,252.660110 
	C172.563080,250.713638 171.334915,248.835449 171.914047,246.164612 
	C174.386078,242.896317 178.121170,242.562988 181.634216,241.120056 
	C184.343704,242.492813 185.162979,244.874756 186.230423,247.139130 
	C189.707428,254.514786 193.967880,261.341125 200.596375,267.427307 
	C203.266403,258.083038 204.713348,249.283478 206.196060,240.490784 
	C206.661789,237.728882 206.571228,234.803802 208.671677,232.153351 
	C215.695114,227.375275 223.603531,225.988770 231.686981,224.080353 
	C236.431808,224.102264 239.991882,226.461273 243.791641,228.033371 
	C248.966187,230.174255 253.963196,232.761322 259.596191,234.511780 
	C260.156921,228.462250 256.983917,223.182663 257.950104,217.181152 
	C260.764893,213.967682 264.650665,214.246368 268.429260,213.191010 
	C270.470398,222.919113 272.624420,232.606400 273.664551,242.411865 
	C274.635559,251.565506 275.079468,260.795074 275.089508,270.056915 
	C275.127930,305.499481 267.930084,339.331268 253.731934,371.773407 
	C248.993484,382.600555 243.414474,392.913635 237.085297,402.872772 
	C235.682205,405.080597 234.268433,406.075897 231.619675,406.052795 
	C219.866791,405.950195 208.100800,406.265533 196.389801,404.985809 
	C166.100555,401.675964 136.257462,396.231476 107.828423,384.873352 
	C94.435349,379.522430 81.614731,372.783020 71.206322,362.583313 
	C53.375561,345.110046 52.660210,325.869995 65.998940,305.588104 
	C68.755951,301.395996 72.086586,297.581085 75.324127,293.325806 
	C76.138504,292.756561 76.801079,292.511047 77.644325,292.052277 
	C77.787277,291.728241 77.779060,291.670197 77.775131,291.641113 
	C79.847519,292.670624 81.159874,290.930359 82.668282,290.171967 
	C93.590431,284.680664 104.472107,279.108887 115.730576,273.724670 
	C116.484749,277.317902 113.649117,278.383301 111.527580,279.733704 
	C100.053368,287.037109 90.195885,296.192230 81.100594,306.195740 
	C79.052742,308.448059 75.388969,311.046600 76.634377,313.901306 
	C77.608124,316.133270 81.766472,314.151184 84.496193,314.156311 
	C95.035065,314.176208 105.326347,312.160828 115.605049,310.043396 
	C119.062614,309.331146 119.960686,307.930328 118.581299,304.549805 
	C114.635094,294.878632 114.141197,284.865631 116.105171,274.350220 
z"/>
<path fill="#CFD8DC" opacity="1.000000" stroke="none" 
	d="
M124.389694,75.837189 
	C121.295685,76.752220 120.725479,73.933655 119.073250,72.833977 
	C117.484795,71.776772 117.073219,69.394638 114.507080,69.002228 
	C117.890572,60.481987 125.363838,56.062546 133.052643,52.028851 
	C148.052765,44.159496 164.151794,39.249577 180.469360,35.027580 
	C188.730652,32.890057 197.050751,30.976095 205.363220,29.042519 
	C207.983643,28.432980 209.156754,29.307783 209.062119,32.350246 
	C208.504044,50.290585 211.811432,67.625229 218.069534,84.375755 
	C219.862579,89.175102 222.532578,93.646812 224.937592,98.597916 
	C220.764587,99.589630 216.683701,98.397697 212.259583,97.148636 
	C207.797424,94.939423 207.334076,90.623383 205.925247,87.038422 
	C204.673187,83.852386 203.577271,83.284882 200.676926,85.465698 
	C196.635757,88.504303 193.137711,92.585876 187.333191,93.268280 
	C175.460083,93.057083 164.348816,90.342873 153.033691,87.329834 
	C146.453644,83.237831 143.092392,76.732330 138.682220,71.219322 
	C134.074753,65.459679 131.702637,65.346687 127.244774,71.393555 
	C126.256721,72.733780 125.804268,74.389938 124.389694,75.837189 
z"/>
<path fill="#C37274" opacity="1.000000" stroke="none" 
	d="
M113.625099,72.058266 
	C113.965004,73.315414 113.971779,74.753899 113.965637,76.622543 
	C112.247383,75.652214 113.096771,73.901009 113.625099,72.058266 
z"/>
<path fill="#B71C1C" opacity="1.000000" stroke="none" 
	d="
M77.438095,291.698242 
	C77.926895,292.872803 76.992065,292.857086 75.898193,293.081909 
	C76.026573,292.595612 76.557747,292.131958 77.438095,291.698242 
z"/>
<path fill="#000000" opacity="1.000000" stroke="none" 
	d="
M306.279388,192.830475 
	C318.427246,177.955429 330.433411,163.485382 338.325592,146.194778 
	C339.668182,143.253418 341.072876,142.656754 343.927094,144.421432 
	C357.567383,152.854874 370.434204,162.272537 381.977142,173.449005 
	C383.777527,175.192245 385.302551,177.070328 386.389679,179.727570 
	C366.787170,182.209976 347.449341,185.488220 328.154938,189.021774 
	C321.386658,190.261307 314.650879,191.678116 307.481659,193.044785 
	C306.767761,193.141266 306.472473,193.206940 306.279388,192.830475 
z"/>
<path fill="#000000" opacity="1.000000" stroke="none" 
	d="
M272.316193,160.301300 
	C290.563202,153.317688 308.586670,146.895905 328.388489,142.591248 
	C323.239197,152.560120 317.756927,161.009216 311.507599,168.947617 
	C306.102356,175.813797 300.443298,182.479675 294.961792,189.286743 
	C293.867920,190.645111 292.953064,191.565720 291.431610,189.914764 
	C282.692017,180.431213 272.393250,172.764282 261.469788,164.820602 
	C265.407318,163.204117 268.695251,161.854309 272.316193,160.301300 
z"/>
<path fill="#000000" opacity="1.000000" stroke="none" 
	d="
M171.646423,245.891174 
	C177.950226,259.311127 185.402481,271.781799 197.428574,281.560455 
	C180.522812,291.019257 162.903381,297.249176 144.152405,304.257050 
	C155.822479,285.640015 165.348343,267.353882 170.004410,246.539795 
	C170.447540,246.082748 170.885208,246.023010 171.646423,245.891174 
z"/>
<path fill="#000000" opacity="1.000000" stroke="none" 
	d="
M223.275864,214.836136 
	C232.729767,201.292816 242.584534,188.532562 250.319061,174.342270 
	C251.370239,172.413727 252.898163,172.106277 254.756866,173.360626 
	C265.298584,180.474686 275.349304,188.169830 284.643921,198.377625 
	C264.236511,203.819458 244.417740,208.986160 224.460571,215.048599 
	C223.773102,215.150146 223.475677,215.216400 223.275864,214.836136 
z"/>
<path fill="#000000" opacity="1.000000" stroke="none" 
	d="
M314.914764,135.007111 
	C298.047119,139.468704 281.910095,144.876053 266.161530,151.420807 
	C265.184906,151.826660 264.184143,152.309464 263.445465,151.447571 
	C262.627441,150.493057 263.753113,149.603119 264.107758,148.790207 
	C267.978455,139.918411 271.715027,130.996140 273.988190,121.556679 
	C274.575775,119.116745 276.215027,118.648018 278.074921,119.070999 
	C292.583923,122.370743 306.837036,126.478348 321.365753,133.215851 
	C318.734070,133.985825 317.026367,134.485458 314.914764,135.007111 
z"/>
<path fill="#000000" opacity="1.000000" stroke="none" 
	d="
M157.479782,252.025955 
	C151.973511,270.401001 142.839432,287.099396 131.593277,303.335938 
	C125.328125,290.680084 125.669189,278.570587 130.928772,265.954529 
	C139.659760,261.036621 148.391617,256.541595 157.479782,252.025955 
z"/>
<path fill="#000000" opacity="1.000000" stroke="none" 
	d="
M183.004120,132.000336 
	C179.296738,131.159637 176.006760,130.342712 172.282135,129.417847 
	C180.846664,121.663040 189.900375,114.996964 199.560394,109.134697 
	C200.769501,108.400932 201.696411,108.340996 202.552475,109.987427 
	C206.938019,118.421974 208.004517,127.489128 207.969330,136.789093 
	C207.958817,139.566483 206.460098,138.917679 204.630173,138.344818 
	C197.590897,136.141190 190.495789,134.115891 183.004120,132.000336 
z"/>
<path fill="#000000" opacity="1.000000" stroke="none" 
	d="
M208.491943,231.888733 
	C208.554703,240.944244 206.377640,249.736252 204.667938,258.595306 
	C203.886734,262.643219 202.781265,266.628510 201.740402,270.987610 
	C192.287720,262.979095 186.306503,253.013992 182.004410,241.526337 
	C190.699768,238.076767 199.402390,234.994644 208.491943,231.888733 
z"/>
<path fill="#000000" opacity="1.000000" stroke="none" 
	d="
M238.365860,135.296524 
	C246.533554,130.745712 254.102127,125.845955 263.016418,122.235657 
	C259.270508,133.934372 254.348953,144.591919 249.001831,155.080521 
	C248.168457,156.715210 247.238602,156.645584 245.882523,155.973175 
	C238.691376,152.407471 231.487289,148.867844 223.934402,145.145065 
	C228.283325,141.227097 233.419617,138.712509 238.365860,135.296524 
z"/>
<path fill="#000000" opacity="1.000000" stroke="none" 
	d="
M156.977402,99.013992 
	C166.986938,100.745270 176.565247,102.461525 186.595795,104.258820 
	C177.842972,110.970993 169.166000,116.943306 161.519791,124.988770 
	C156.608002,113.938850 148.811783,105.340858 140.562286,95.535538 
	C146.702652,96.866058 151.624405,97.932518 156.977402,99.013992 
z"/>
<path fill="#000000" opacity="1.000000" stroke="none" 
	d="
M167.121674,141.042450 
	C167.159286,139.717163 167.498871,139.006531 168.593796,139.279144 
	C178.255768,141.684753 188.049835,143.582886 197.458252,146.963913 
	C199.613892,147.738556 200.448074,148.172455 198.138992,150.001816 
	C189.271851,157.026840 180.513290,164.188904 171.038208,171.846176 
	C171.294144,161.144867 170.170044,151.150650 167.121674,141.042450 
z"/>
<path fill="#000000" opacity="1.000000" stroke="none" 
	d="
M231.784332,126.744247 
	C227.357330,129.610489 223.202972,132.229187 218.742172,135.041061 
	C216.911011,130.879501 218.589813,126.524002 217.378448,122.395515 
	C216.282181,118.659279 215.746124,114.708687 214.487244,110.967735 
	C213.575623,108.258759 214.422775,108.019402 217.069321,108.465897 
	C229.043594,110.486023 241.066238,112.219437 254.035233,114.203552 
	C246.218292,118.575821 239.137634,122.536263 231.784332,126.744247 
z"/>
<path fill="#000000" opacity="1.000000" stroke="none" 
	d="
M215.707672,206.633026 
	C213.794067,208.681458 211.998932,210.357880 210.735229,213.390366 
	C208.402878,206.388443 204.649780,201.321228 200.233017,196.510880 
	C211.475052,189.155930 223.469727,183.505859 235.295135,177.271973 
	C229.854019,187.694809 222.574646,196.811157 215.707672,206.633026 
z"/>
<path fill="#000000" opacity="1.000000" stroke="none" 
	d="
M174.928986,232.937134 
	C172.456772,233.175262 170.989502,235.561050 168.235321,234.639206 
	C176.061508,225.391663 184.186356,216.621307 190.851089,206.690201 
	C192.038025,204.921524 192.959610,205.585464 194.319412,206.731201 
	C197.480240,209.394455 199.255692,212.927917 200.694717,216.577454 
	C202.176987,220.336624 201.901596,223.361420 196.874893,224.685806 
	C189.432678,226.646652 182.313904,229.661438 174.928986,232.937134 
z"/>
<path fill="#000000" opacity="1.000000" stroke="none" 
	d="
M222.676514,171.702026 
	C217.779785,174.225388 213.202957,176.550186 207.711685,179.339478 
	C210.688065,170.917130 213.959290,163.650497 215.643036,155.872375 
	C216.108200,153.723541 217.476074,154.236130 219.015671,154.884171 
	C225.314972,157.535568 231.663498,160.070511 238.150360,163.756317 
	C232.814819,166.484009 227.905624,168.993744 222.676514,171.702026 
z"/>
<path fill="#000000" opacity="1.000000" stroke="none" 
	d="
M257.615356,216.903397 
	C260.897705,223.426987 260.930786,230.536728 262.507263,238.096863 
	C251.943176,233.443924 242.155136,229.132812 232.224640,224.502899 
	C240.308441,221.260544 248.607361,218.589874 257.615356,216.903397 
z"/>
<path fill="#000000" opacity="1.000000" stroke="none" 
	d="
M124.052223,76.020569 
	C124.129990,72.400017 130.919174,63.694901 134.228561,63.446049 
	C135.677963,63.337059 136.231384,65.048813 137.081787,66.168579 
	C142.232254,72.950485 147.545303,79.608925 152.819839,86.652229 
	C144.150269,85.775826 135.814331,83.413918 127.688736,79.238220 
	C127.028320,78.884750 126.691925,78.647141 126.175987,78.142349 
	C125.973610,77.907829 125.981804,78.018341 126.037155,78.015999 
	C125.820427,77.798470 125.564232,77.565788 125.163116,77.111465 
	C125.002312,76.907295 125.000916,76.998932 125.046738,76.999527 
	C124.818382,76.797150 124.568527,76.567978 124.185760,76.110558 
	C124.024513,75.912842 124.004173,76.009384 124.052223,76.020569 
z"/>
<path fill="#000000" opacity="1.000000" stroke="none" 
	d="
M177.817978,180.685059 
	C185.948898,173.547455 193.884796,166.714523 202.702393,160.262833 
	C203.073563,164.298035 201.006180,167.391296 199.639450,170.396866 
	C197.140396,175.892548 194.784241,181.516800 191.253036,186.530853 
	C190.285645,187.904495 189.893036,188.930435 188.005371,187.994766 
	C184.344421,186.180099 180.538940,184.650177 176.925232,182.751266 
	C175.855927,182.189377 177.295288,181.545364 177.817978,180.685059 
z"/>
<path fill="#000000" opacity="1.000000" stroke="none" 
	d="
M187.271759,93.510391 
	C192.512131,89.843132 197.769852,86.072517 202.604736,81.787857 
	C205.058060,79.613724 205.241272,80.378296 206.161041,83.031784 
	C207.718704,87.525482 209.119141,92.158318 211.843903,96.570610 
	C203.809677,95.875504 195.681122,94.836533 187.271759,93.510391 
z"/>
<path fill="#000000" opacity="1.000000" stroke="none" 
	d="
M167.939636,198.818268 
	C170.483109,191.075333 170.486053,191.069824 177.721359,194.937134 
	C178.414612,195.307693 179.041656,195.802094 179.897842,196.370789 
	C175.383453,199.380630 171.106064,202.232437 165.632874,205.881516 
	C166.683578,202.754700 167.279999,200.979828 167.939636,198.818268 
z"/>
<path fill="#000000" opacity="1.000000" stroke="none" 
	d="
M152.000565,229.995728 
	C155.436951,226.067001 159.661728,223.752625 163.930893,221.365616 
	C159.804428,229.031509 153.078476,234.049500 145.879410,240.030457 
	C146.959763,235.413498 149.899719,233.169678 152.000565,229.995728 
z"/>
<path fill="#000000" opacity="1.000000" stroke="none" 
	d="
M143.726654,241.078064 
	C144.604324,240.648682 144.866150,241.005051 144.549149,241.498428 
	C144.237320,241.983704 143.753769,241.851761 143.726654,241.078064 
z"/>
<path fill="#000000" opacity="1.000000" stroke="none" 
	d="
M166.391937,219.007156 
	C166.508240,218.240692 166.852036,218.060349 167.348724,218.444733 
	C167.076660,218.720627 166.804596,218.996521 166.391937,219.007156 
z"/>
<path fill="#000000" opacity="1.000000" stroke="none" 
	d="
M223.908020,214.898499 
	C223.786148,215.741241 223.314163,216.021851 222.642853,215.695526 
	C222.598404,215.673920 222.849091,215.045181 223.167984,214.544220 
	C223.373459,214.389618 223.745529,214.713120 223.908020,214.898499 
z"/>
<path fill="#000000" opacity="1.000000" stroke="none" 
	d="
M306.904572,192.892029 
	C306.782867,193.734940 306.315796,194.022461 305.641052,193.691528 
	C305.597687,193.670242 305.852509,193.040894 306.175110,192.541382 
	C306.381622,192.388367 306.746063,192.708466 306.904572,192.892029 
z"/>
<path fill="#CFD8DC" opacity="1.000000" stroke="none" 
	d="
M126.001495,78.267372 
	C126.313782,78.133026 126.653954,78.358223 127.192596,78.834045 
	C126.937164,78.932083 126.483269,78.779503 126.001495,78.267372 
z"/>
<path fill="#CFD8DC" opacity="1.000000" stroke="none" 
	d="
M124.886032,77.261246 
	C125.311272,77.097351 125.620232,77.287415 126.010849,77.745567 
	C125.651588,77.880836 125.210670,77.748016 124.886032,77.261246 
z"/>
<path fill="#CFD8DC" opacity="1.000000" stroke="none" 
	d="
M123.789322,76.292496 
	C124.333351,76.095413 124.642181,76.277985 125.021790,76.730339 
	C124.488129,77.320534 123.975967,77.208191 123.789322,76.292496 
z"/>
<path fill="#000000" opacity="1.000000" stroke="none" 
	d="
M260.999847,312.111603 
	C258.115723,325.752319 255.373810,338.991760 250.324112,351.633545 
	C249.544998,353.583984 248.927475,354.202057 246.995514,353.977753 
	C228.903793,351.876953 210.889984,349.390594 193.258469,343.316956 
	C203.336197,338.485199 213.418137,333.891571 223.276764,328.860413 
	C234.154495,323.309143 244.927979,317.545013 255.503998,311.413818 
	C256.527618,310.820404 259.615082,305.569519 260.999847,312.111603 
z"/>
<path fill="#000000" opacity="1.000000" stroke="none" 
	d="
M115.979256,273.962952 
	C116.822220,274.107483 117.394218,273.635254 117.301369,275.443054 
	C116.815796,284.896027 116.103210,294.394043 119.875038,303.557617 
	C120.755318,305.696198 123.879959,308.003906 121.863632,310.220428 
	C120.537987,311.677734 117.385506,311.508911 115.035507,311.992523 
	C104.304802,314.200836 93.558380,316.309998 82.517937,315.994720 
	C79.148796,315.898529 75.683212,318.117096 72.248901,315.339417 
	C83.271263,298.063080 98.940933,285.649719 115.994278,274.242310 
	C116.094551,273.886749 115.988739,273.909668 115.979256,273.962952 
z"/>
<path fill="#000000" opacity="1.000000" stroke="none" 
	d="
M120.775665,336.720825 
	C124.153259,332.330139 127.317024,328.231598 130.386765,324.063782 
	C131.705490,322.273315 132.566071,322.491974 134.128311,324.002289 
	C142.698090,332.287109 153.278992,337.589478 163.455353,343.443420 
	C151.875137,349.823547 115.063713,360.246796 100.296013,360.841248 
	C107.093079,352.824829 113.808411,344.904846 120.775665,336.720825 
z"/>
<path fill="#000000" opacity="1.000000" stroke="none" 
	d="
M116.789650,323.146301 
	C112.361740,330.901703 106.295151,336.823395 101.010323,343.353058 
	C96.882217,348.453583 91.940849,352.889984 87.707863,357.913849 
	C85.454254,360.588501 83.627441,359.747192 81.684593,358.118958 
	C73.671196,351.403107 68.319374,343.027130 67.312096,332.501343 
	C67.086342,330.142303 67.180321,326.647675 72.145737,326.853271 
	C85.751633,327.416656 99.245857,325.859894 112.579269,323.026825 
	C113.375893,322.857544 114.237724,322.995178 115.496078,322.953674 
	C116.237427,322.832886 116.551910,322.748413 116.789650,323.146301 
z"/>
<path fill="#000000" opacity="1.000000" stroke="none" 
	d="
M176.046997,354.990845 
	C178.068756,350.335693 180.704315,350.206543 185.137436,351.809113 
	C199.116928,356.862732 213.525955,360.487671 228.264771,362.236633 
	C221.129868,367.579956 165.693237,381.646149 154.915466,380.597992 
	C163.198395,372.918610 169.030090,363.664917 176.046997,354.990845 
z"/>
<path fill="#000000" opacity="1.000000" stroke="none" 
	d="
M190.200058,331.859070 
	C197.186951,317.763519 202.995346,303.700867 207.494827,288.828247 
	C219.972122,296.614258 233.619507,300.488739 249.207291,302.559692 
	C229.819199,313.702332 211.105759,323.401337 191.445343,332.039825 
	C190.759644,332.168427 190.444519,332.256622 190.200058,331.859070 
z"/>
<path fill="#000000" opacity="1.000000" stroke="none" 
	d="
M238.054337,290.001556 
	C232.204544,288.521729 226.794449,287.086395 221.755829,284.435669 
	C219.335602,283.162445 219.723358,282.012817 221.579651,281.154297 
	C232.253784,276.217621 241.802902,269.364990 251.969147,263.571869 
	C255.983078,261.284576 259.386993,257.980804 263.577698,256.396240 
	C266.806580,267.588440 263.875366,278.714600 264.036316,289.827026 
	C264.067780,292.000092 263.767792,293.070526 261.145813,293.070038 
	C253.433990,293.068604 245.919571,291.897552 238.054337,290.001556 
z"/>
<path fill="#000000" opacity="1.000000" stroke="none" 
	d="
M185.738708,315.665771 
	C182.276932,321.943268 179.826065,328.315521 176.032394,333.990112 
	C175.284546,335.108734 174.881119,336.393463 173.125153,335.647949 
	C161.801834,330.840424 151.231186,324.841797 141.251190,316.058441 
	C159.675110,310.356171 176.661209,303.447784 194.331726,295.347046 
	C191.234146,302.745270 188.596146,309.045807 185.738708,315.665771 
z"/>
<path fill="#000000" opacity="1.000000" stroke="none" 
	d="
M237.310730,238.721741 
	C243.960922,241.672058 250.293488,244.390762 256.954803,247.250595 
	C242.565216,257.347809 227.649216,265.790100 212.145340,274.470734 
	C214.010117,265.283417 215.822876,256.741272 217.453674,248.164490 
	C218.358322,243.406815 218.993149,238.596237 219.679153,233.799438 
	C219.939438,231.979492 220.472107,231.104980 222.504456,232.044250 
	C227.302261,234.261581 232.159760,236.349731 237.310730,238.721741 
z"/>
<path fill="#000000" opacity="1.000000" stroke="none" 
	d="
M195.865997,394.000427 
	C186.420547,393.707214 177.642914,391.750580 168.671249,390.476288 
	C181.258118,387.329102 193.975571,384.729675 206.483490,381.252502 
	C219.145828,377.732422 231.468338,373.342285 244.114243,367.671570 
	C239.458710,376.985687 235.483627,385.727631 230.192932,393.807037 
	C229.112350,395.457184 228.105835,396.023499 226.296249,396.023376 
	C216.260437,396.022705 206.276672,395.316528 195.865997,394.000427 
z"/>
<path fill="#000000" opacity="1.000000" stroke="none" 
	d="
M155.278320,358.301880 
	C156.949509,357.758545 158.305603,357.459167 160.269104,357.025696 
	C157.216354,363.072205 152.158051,366.835327 148.682526,371.804352 
	C148.401337,372.206390 147.988937,372.517151 147.634964,372.867737 
	C133.510300,386.857910 138.623459,383.645691 120.437294,378.630219 
	C114.545601,377.005432 109.068146,373.878571 103.025673,371.277100 
	C121.213707,369.280548 138.190018,364.325409 155.278320,358.301880 
z"/>
<path fill="#000000" opacity="1.000000" stroke="none" 
	d="
M116.116730,323.099304 
	C116.233360,322.042450 116.805855,321.789246 117.607552,322.272400 
	C117.644081,322.294434 117.322197,322.911194 116.940079,323.439819 
	C116.578781,323.512909 116.444641,323.397095 116.116730,323.099304 
z"/>
<path fill="#000000" opacity="1.000000" stroke="none" 
	d="
M190.877762,331.898956 
	C190.770096,332.954529 190.199280,333.208221 189.397980,332.733398 
	C189.360352,332.711060 189.674088,332.095825 190.047440,331.565033 
	C190.407394,331.488129 190.544083,331.602875 190.877762,331.898956 
z"/>
<path fill="#000000" opacity="1.000000" stroke="none" 
	d="
M200.970139,60.174534 
	C201.312988,62.995228 200.739151,64.536240 197.882385,63.997646 
	C188.357330,62.201870 178.822067,60.458801 169.308365,58.604874 
	C163.991272,57.568741 158.530319,57.108738 152.604782,54.808380 
	C166.861526,49.405846 180.734406,45.530590 194.721527,42.053051 
	C197.467133,41.370430 199.424072,41.955265 199.085541,45.753342 
	C198.664047,50.481941 199.625000,55.161343 200.970139,60.174534 
z"/>
<path fill="#000000" opacity="1.000000" stroke="none" 
	d="
M172.120590,69.997559 
	C179.875610,71.312950 187.188858,72.626213 194.804230,73.993729 
	C188.429871,80.520905 180.495911,84.183090 173.329910,88.934189 
	C171.187637,90.354530 169.411987,89.118500 168.021881,87.485443 
	C162.744858,81.286133 157.527039,75.036453 152.288300,68.804565 
	C151.677078,68.077469 150.500626,67.376320 151.334488,66.350708 
	C151.704742,65.895309 152.940659,65.888367 153.705353,66.049484 
	C159.707214,67.313965 165.690094,68.668594 172.120590,69.997559 
z"/>
</svg>